<svg xmlns="http://www.w3.org/2000/svg" viewBox="0 0 100 100"><style>.st0{fill:#f6e05e}</style><g id="Layer_2"><path class="st0" d="M31.4 81.7c-1.8 1.5-3.6 2.9-5.5 4.3-1.4 1.1-2.7 1-3.9-.2L14.2 78c-1.2-1.2-1.3-2.5-.2-3.9 1.4-1.9 2.9-3.7 4.3-5.5.3-.4.3-.6.1-1.1v-.1L5.1 80.7 19.5 95l13.4-13.4s-.1 0-.1-.1c-.6-.1-1-.2-1.4.2zM59.3 14.6l-15.2 4.1 9.2 9.2 2.2 2.2L28.7 57C31 63.8 36.3 69.2 43 71.4l26.9-27 2.2 2.2 9.2 9.2 4-15.1L94.8 5l-35.5 9.6z"/><path d="M92.6 41.6l-7.2-.9-4 15.1-9.2-9.2c0 .3.2.6.2 1 1.4 13-8.1 23.6-19.9 24.8-3.3.3-6.5 0-9.4-1C36.3 69.2 31 63.8 28.7 57c-.7-2-1.1-4-1.2-6.2-.4-11.5 8-21.8 20-23.2 2-.2 4-.1 5.9.2l-9.2-9.2 15.2-4.1c-.2-2.4-.6-4.7-.8-7.1-.2-1.5-1.2-2.5-2.8-2.5H44.4c-1.5 0-2.6 1-2.8 2.5l-.9 7.2c0 .3-.3.6-.6.7-2.5 1.1-5 2.1-7.5 3.1-.4.2-.7.2-1.1-.1-1.8-1.5-3.7-2.9-5.5-4.4-1.4-1.1-2.7-1-3.9.2l-7.8 7.8c-1.2 1.2-1.3 2.5-.2 3.9 1.4 1.8 2.8 3.7 4.3 5.5.4.5.4.8.1 1.3l-3 7.2c-.2.5-.4.8-1 .8-2.2.2-4.3.6-6.5.8-1.5.1-2.4.8-3 2v13c.6 1.3 1.6 1.9 3 2 2.2.2 4.4.5 6.6.8.4 0 .6.2.8.6 1 2.5 2 5 3.1 7.4v.1c.2.5.1.7-.1 1.1-1.5 1.8-2.9 3.7-4.3 5.5-1.1 1.4-1 2.7.2 3.9l7.8 7.8c1.2 1.2 2.5 1.3 3.9.2 1.8-1.4 3.7-2.8 5.5-4.3.5-.4.8-.4 1.3-.1 0 0 .1 0 .1.1 2.3 1 4.7 2 7.1 2.9.5.2.8.4.8 1 .2 2.3.6 4.6.8 7 .1 1.3.9 2 1.9 2.5h13c1.3-.6 1.9-1.6 2-3 .2-2.2.5-4.4.8-6.6 0-.5.2-.6.6-.8 2.5-1 5-2 7.5-3.1.5-.2.7-.1 1.1.2 1.8 1.4 3.6 2.9 5.5 4.3 1.5 1.1 2.7 1.1 4.1-.2 2.6-2.5 5.1-5.1 7.6-7.7 1.3-1.3 1.4-2.6.2-4.1-1.4-1.8-2.9-3.7-4.3-5.5-.3-.4-.3-.7-.1-1.2 1.1-2.4 2.1-4.9 3.1-7.4.2-.5.4-.7.9-.7l7.2-.9c1.5-.2 2.4-1.3 2.4-2.8V44.1c0-1.3-1-2.4-2.5-2.5z" fill="#00a77e"/></g></svg>